<svg width="24" height="24" viewBox="0 0 24 24" fill="none" xmlns="http://www.w3.org/2000/svg">
<path d="M17.8125 0.75H6.1875C5.78981 0.750447 5.40854 0.908625 5.12733 1.18983C4.84613 1.47104 4.68795 1.85231 4.6875 2.25V21.75C4.68795 22.1477 4.84613 22.529 5.12733 22.8102C5.40854 23.0914 5.78981 23.2496 6.1875 23.25H17.8125C18.2102 23.2496 18.5915 23.0914 18.8727 22.8102C19.1539 22.529 19.3121 22.1477 19.3125 21.75V2.25C19.3121 1.85231 19.1539 1.47104 18.8727 1.18983C18.5915 0.908625 18.2102 0.750447 17.8125 0.75ZM17.8125 2.25V3.75H6.1875V2.25H17.8125ZM17.8125 5.25L17.813 15.75H6.1875V5.25H17.8125ZM17.8125 21.75H6.1875V17.25H17.8132V21.75H17.8125Z" fill="#767676"/>
<path d="M11.25 18.75H12.75V20.25H11.25V18.75Z" fill="#767676"/>
</svg>
